<?xml version="1.0" standalone="no"?>
<!DOCTYPE svg PUBLIC "-//W3C//DTD SVG 20010904//EN"
 "http://www.w3.org/TR/2001/REC-SVG-20010904/DTD/svg10.dtd">
<svg version="1.0" xmlns="http://www.w3.org/2000/svg"
 width="391.000000pt" height="391.000000pt" viewBox="0 0 391.000000 391.000000"
 preserveAspectRatio="xMidYMid meet">
<metadata>
Created by potrace 1.11, written by Peter Selinger 2001-2013
</metadata>
<g transform="translate(0.000000,391.000000) scale(0.100000,-0.100000)"
fill="#000000" stroke="none">
<path d="M1875 2943 c-266 -49 -474 -201 -575 -420 -63 -135 -98 -344 -76
-444 3 -13 8 -35 10 -49 28 -152 110 -314 205 -404 35 -34 39 -45 14 -44 -23
1 -104 -10 -172 -23 -29 -6 -56 -7 -61 -2 -4 4 -15 37 -25 73 -9 36 -26 82
-38 102 -22 41 -91 92 -112 84 -7 -2 -57 -38 -112 -79 -208 -156 -303 -206
-478 -251 -76 -20 -215 -15 -269 8 -105 46 -43 -89 66 -145 28 -15 38 -24 28
-27 -30 -10 -126 -81 -177 -131 -76 -74 -71 -106 11 -71 91 39 191 52 411 55
233 4 278 7 362 29 31 8 58 14 59 13 0 -1 16 -30 34 -63 32 -60 34 -61 70 -58
21 2 70 11 111 20 41 9 94 17 119 19 25 2 63 6 85 9 22 4 67 8 100 11 33 3 76
8 95 10 240 29 644 24 955 -11 33 -4 78 -8 100 -9 22 -2 74 -10 115 -18 42 -9
98 -19 125 -22 28 -3 60 -8 72 -11 19 -3 27 4 48 46 19 38 30 50 43 46 94 -29
173 -36 442 -40 107 -2 204 -6 215 -9 11 -4 38 -11 61 -16 23 -6 62 -19 87
-30 40 -17 47 -18 58 -5 10 12 6 21 -22 51 -47 49 -139 124 -179 146 l-34 18
45 25 c59 34 77 52 100 97 28 53 8 74 -44 45 -12 -7 -29 -14 -37 -15 -37 -9
-154 -10 -193 -2 -74 15 -81 17 -152 44 -38 15 -74 28 -80 29 -5 1 -21 9 -35
18 -159 102 -206 134 -274 187 -43 33 -85 61 -93 61 -8 0 -32 -12 -54 -27 -40
-29 -78 -95 -98 -170 l-11 -39 -62 8 c-35 5 -74 11 -88 13 -14 3 -37 6 -52 7
-16 0 -28 3 -28 6 0 2 17 20 37 41 20 20 54 63 75 95 23 36 47 61 59 63 38 6
61 24 79 65 14 32 16 47 7 76 -5 20 -10 55 -9 77 0 22 2 96 3 165 3 139 -10
204 -64 320 -106 228 -277 374 -508 436 -59 15 -245 26 -294 17z"/>
</g>
</svg>
